<svg width="41" height="41" viewBox="0 0 41 41" fill="none" xmlns="http://www.w3.org/2000/svg">
<path d="M22.5244 39.8777C24.6829 35.6677 25.0317 32.0844 24.7466 29.7849C24.6379 28.9081 23.6483 28.5515 22.853 28.9362C21.8035 29.4438 20.5639 29.9542 19.509 30.3476C18.6457 30.6696 18.2388 31.7348 18.5621 32.5976C19.1109 34.0621 19.5623 36.1116 19.5243 38.5633C19.5001 40.128 21.8105 41.2703 22.5244 39.8777Z" fill="#58DBF8"/>
<path d="M10.6898 34.6651C8.94175 36.4132 6.10721 36.5631 4.91062 36.5412C4.58253 36.5351 4.32748 36.2801 4.32145 35.952C4.29945 34.7554 4.44936 31.9208 6.19745 30.1728C8.45876 27.9115 11.2976 27.084 12.5381 28.3245C13.7786 29.565 12.9511 32.4038 10.6898 34.6651Z" fill="url(#paint0_linear_82_23)"/>
<path d="M1.18603 18.5393C5.39603 16.3808 8.97938 16.032 11.2789 16.3171C12.1556 16.4258 12.5123 17.4154 12.1276 18.2107C11.62 19.2603 11.1095 20.4998 10.7161 21.5548C10.3942 22.418 9.32894 22.825 8.46621 22.5017C7.00167 21.9529 4.9522 21.5015 2.50049 21.5394C0.935777 21.5637 -0.20652 19.2532 1.18603 18.5393Z" fill="#58DBF8"/>
<path d="M39.629 1.46223C38.6764 0.509714 32.4982 0.48116 26.0705 3.14293C26.0705 3.14293 26.7519 5.45935 31.1919 9.89936C35.6319 14.3394 37.9483 15.0208 37.9483 15.0208C40.6101 8.59299 40.5816 2.41474 39.629 1.46223Z" fill="url(#paint1_linear_82_23)"/>
<path fill-rule="evenodd" clip-rule="evenodd" d="M32.2555 23.7061C28.0807 27.8808 20.3515 31.0846 20.3515 31.0846C20.3515 31.0846 16.7831 33.6766 12.0989 28.9924C7.41461 24.3081 10.0066 20.7397 10.0066 20.7397C10.0066 20.7397 13.2104 13.0105 17.3852 8.83575C19.9941 6.22683 23.0597 4.38974 26.0705 3.14293C26.0705 3.14293 26.7519 5.45935 31.1919 9.89936C35.6319 14.3394 37.9483 15.0208 37.9483 15.0208C36.7015 18.0316 34.8644 21.0972 32.2555 23.7061Z" fill="url(#paint2_linear_82_23)"/>
<path d="M10.0066 20.7397C10.0066 20.7397 6.5463 25.3113 11.1631 29.9281C15.7799 34.5449 20.3515 31.0846 20.3515 31.0846C20.3515 31.0846 16.7831 33.6766 12.0989 28.9924C7.41461 24.3081 10.0066 20.7397 10.0066 20.7397Z" fill="url(#paint3_linear_82_23)"/>
<path d="M27.8574 19.4576C26.1388 21.1763 23.3523 21.1763 21.6336 19.4576C19.915 17.739 19.915 14.9525 21.6336 13.2338C23.3523 11.5152 26.1388 11.5152 27.8574 13.2338C29.5761 14.9525 29.5761 17.739 27.8574 19.4576Z" fill="#A1EEFF"/>
<path d="M16.8553 18.0122C17.3395 17.528 18.1403 17.5789 18.5715 18.111C19.1558 18.8321 19.9594 19.7884 20.6311 20.4602C21.3029 21.132 22.2593 21.9355 22.9804 22.5199C23.5124 22.951 23.5634 23.7518 23.0791 24.236C22.7351 24.5801 22.2134 24.6582 21.8136 24.3809C21.2279 23.9747 20.2883 23.242 19.0688 22.0225C17.8494 20.803 17.1167 19.8635 16.7104 19.2778C16.4331 18.878 16.5113 18.3563 16.8553 18.0122Z" fill="#A1EEFF"/>
<defs>
<linearGradient id="paint0_linear_82_23" x1="20.3882" y1="54.5919" x2="18.8163" y2="8.29905" gradientUnits="userSpaceOnUse">
<stop stop-color="#FF5252"/>
<stop offset="1" stop-color="#993131"/>
</linearGradient>
<linearGradient id="paint1_linear_82_23" x1="20.3882" y1="-2.23397" x2="20.3882" y2="13.8777" gradientUnits="userSpaceOnUse">
<stop offset="1" stop-color="#58DBF8"/>
</linearGradient>
<linearGradient id="paint2_linear_82_23" x1="20.3882" y1="0.873535" x2="20.3882" y2="40.5052" gradientUnits="userSpaceOnUse">
<stop stop-color="#18DD17"/>
<stop offset="1" stop-color="#58DBF8"/>
</linearGradient>
<linearGradient id="paint3_linear_82_23" x1="20.3882" y1="35.1343" x2="20.3882" y2="43.2578" gradientUnits="userSpaceOnUse">
<stop offset="1" stop-color="#A2EEFF"/>
</linearGradient>
</defs>
</svg>
